solid OpenSCAD_Model44
        facet normal 1.000000 0.000000 -0.000000
    outer loop
    vertex 5.000000 -5.000000 10.000000
    vertex 5.000000 -5.000000 0.000000
    vertex 5.000000 5.000000 0.000000
    endloop
    endfacet
    facet normal 1.000000 0.000000 0.000000
    outer loop
    vertex 5.000000 5.000000 10.000000
    vertex 5.000000 -5.000000 10.000000
    vertex 5.000000 5.000000 0.000000
    endloop
    endfacet
    facet normal 1.000000 0.000000 0.000000
    outer loop
    vertex -1.801938 0.867767 0.000000
    vertex -1.801938 0.867767 10.000000
    vertex -1.801938 -0.867767 10.000000
    endloop
    endfacet
    facet normal 1.000000 0.000000 0.000000
    outer loop
    vertex -1.801938 -0.867767 0.000000
    vertex -1.801938 0.867767 0.000000
    vertex -1.801938 -0.867767 10.000000
    endloop
    endfacet
endsolid OpenSCAD_Model
